<svg xmlns="http://www.w3.org/2000/svg" width="245" height="67" viewBox="0 0 246 67"><defs><linearGradient id="a" gradientUnits="userSpaceOnUse" x1="122.8" y1="42.677" x2="122.8" y2="158.523" gradientTransform="matrix(.99702 0 0 .99702 .565 -63.81)"><stop offset="0" style="stop-color:#005aaa;stop-opacity:1"/><stop offset=".15" style="stop-color:#0056a4;stop-opacity:1"/><stop offset=".352" style="stop-color:#004b93;stop-opacity:1"/><stop offset=".583" style="stop-color:#003877;stop-opacity:1"/><stop offset=".835" style="stop-color:#001e50;stop-opacity:1"/><stop offset="1" style="stop-color:#000a32;stop-opacity:1"/></linearGradient></defs><path style="stroke:none;fill-rule:nonzero;fill:url(#a)" d="M.566 0v67h226.621c10.07 0 18.247-8.176 18.247-18.246V0zm0 0"/><path style="stroke:none;fill-rule:nonzero;fill:#fff;fill-opacity:1" d="M37.355 26.52c1.098 1 1.594 2.394 1.594 4.187 0 1.098-.199 2.094-.695 2.895-.5.796-1.2 1.492-2.094 1.992-.898.5-1.996.699-3.191.699h-3.29v5.582h-3.89v-16.95h7.18c1.894.098 3.39.598 4.386 1.595zm-3.09 5.785c.4-.5.696-1.098.696-1.696 0-.597-.2-1.097-.695-1.597-.399-.496-1.098-.696-1.996-.696h-2.59V33h2.59c.898 0 1.597-.2 1.996-.695zM40.445 25.023h6.782c2.191 0 3.886.5 4.984 1.399 1.098.898 1.695 2.293 1.695 4.086 0 1.199-.199 2.195-.699 2.992-.496.797-1.195 1.395-2.191 1.895l3.09 6.582h-4.387l-2.594-5.883h-2.89v5.883h-3.887zm6.782 7.68c.898 0 1.593-.2 1.992-.598.398-.398.699-.898.699-1.597 0-.598-.2-1.094-.598-1.496-.398-.399-1.097-.598-1.996-.598h-2.988v4.387h2.89zM60.086 28.516v3.191h6.484v3.387h-6.484v3.39h7.281v3.493H56.2V25.023h11.168v3.493h-7.281zM81.523 26.52c1.098 1 1.594 2.394 1.594 4.187 0 1.098-.199 2.094-.695 2.895a5.774 5.774 0 0 1-2.094 1.992c-.898.5-1.996.699-3.191.699h-3.29v5.582h-3.89v-16.95h7.18c1.894.098 3.289.598 4.386 1.595zm-3.191 5.785c.398-.5.7-1.098.7-1.696 0-.597-.2-1.097-.7-1.597-.398-.496-1.094-.696-1.992-.696h-2.594V33h2.594c.898 0 1.594-.2 1.992-.695zM88.105 25.023h3.688l6.281 16.954h-4.086l-1.199-3.493h-5.684l-1.293 3.493h-3.988zm3.59 10.27-.699-1.793c-.2-.5-.398-1.195-.7-2.094L90 30.31c-.102.199-.2.699-.398 1.296-.204.598-.403 1.297-.7 1.895l-.699 1.793zM99.27 25.023h6.78c2.192 0 3.888.5 4.985 1.399 1.098.898 1.695 2.293 1.695 4.086 0 1.199-.199 2.195-.699 2.992-.496.797-1.195 1.395-2.191 1.895l3.09 6.582h-4.285l-2.594-5.883h-2.89v5.883H99.27zm6.78 7.68c.9 0 1.595-.2 1.993-.598.402-.398.7-.898.7-1.597 0-.598-.2-1.094-.598-1.496-.399-.399-1.098-.598-1.997-.598h-2.988v4.387h2.89zM120.008 25.023h3.691l6.281 16.954h-4.09l-1.195-3.493h-5.683l-1.297 3.493h-3.988zm3.59 10.27-.7-1.793c-.199-.5-.398-1.195-.695-2.094l-.398-1.097c-.102.199-.2.699-.399 1.296-.199.598-.398 1.297-.699 1.895l-.7 1.793zM141.945 28.516h-5.086v13.46h-3.89v-13.46h-5.082v-3.493h13.957v3.493zM143.14 41.977V25.023h3.887v16.954zM165.973 38.086c-.797 1.297-1.895 2.394-3.293 3.09a10.43 10.43 0 0 1-4.684 1.097c-1.797 0-3.289-.398-4.687-1.097a7.352 7.352 0 0 1-3.192-3.09c-.797-1.297-1.195-2.89-1.195-4.586 0-1.695.398-3.29 1.195-4.586.801-1.297 1.895-2.394 3.192-3.09 1.398-.8 2.992-1.097 4.687-1.097 1.793 0 3.29.398 4.684 1.097 1.398.696 2.496 1.793 3.293 3.09.797 1.297 1.195 2.89 1.195 4.586 0 1.695-.398 3.191-1.195 4.586zm-3.493-7.379a3.91 3.91 0 0 0-1.792-1.793c-.797-.398-1.594-.7-2.594-.7-.996 0-1.895.2-2.59.7-.7.5-1.399 1.098-1.797 1.793-.398.8-.598 1.695-.598 2.793 0 .996.2 1.895.598 2.691.398.797 1 1.395 1.797 1.797.797.399 1.594.696 2.59.696 1 0 1.797-.2 2.594-.696.796-.5 1.394-1.097 1.792-1.797.403-.796.602-1.695.602-2.691 0-1.098-.2-1.992-.602-2.793zM183.52 25.023v16.954h-3.59l-6.98-10.27v10.27h-3.786V25.023h3.586l6.883 10.27v-10.27zM218.516 22.035v-1.2h-12.364v1.2l2.891.797v8.973h-9.074v-8.973l2.894-.797v-1.2H190.5v1.2l2.79.797V44.07l-2.79.895v1.2h12.363v-1.2l-2.894-.895v-8.976h9.074v8.976l-2.89.895v1.2h12.363v-1.2l-2.891-.895V22.832zm0 0"/></svg>